<svg width="35" height="39" viewBox="0 0 35 39" fill="none" xmlns="http://www.w3.org/2000/svg">
<path d="M17.206 19.9159C11.1002 19.9159 6.13281 15.6403 6.13281 10.3847C6.13281 5.12916 11.1002 0.853516 17.206 0.853516C23.3117 0.853516 28.2792 5.12916 28.2792 10.3847C28.2792 15.6403 23.3117 19.9159 17.206 19.9159ZM17.206 3.2618C12.7391 3.2618 9.10496 6.45707 9.10496 10.3847C9.10496 14.3122 12.7391 17.5076 17.206 17.5076C21.6729 17.5076 25.307 14.3122 25.307 10.3847C25.307 6.45707 21.6729 3.2618 17.206 3.2618Z" fill="#00BFA6"/>
<path d="M17.2305 19.6886C11.1112 19.6886 6.13281 15.2725 6.13281 9.84421C6.13281 4.41609 11.1112 0 17.2305 0C23.3497 0 28.3282 4.41609 28.3282 9.84421C28.3282 15.2725 23.3497 19.6886 17.2305 19.6886ZM17.2305 2.48739C12.7537 2.48739 9.11154 5.78762 9.11154 9.84421C9.11154 13.9008 12.7537 17.2012 17.2305 17.2012C21.7073 17.2012 25.3494 13.9008 25.3494 9.84421C25.3494 5.78762 21.7073 2.48739 17.2305 2.48739Z" fill="#C2C2C2"/>
<path d="M28.0091 39H6.99093C5.13747 38.9983 3.36051 38.3827 2.0499 37.2883C0.739299 36.1939 0.00208499 34.71 0 33.1623V15.9464C0.00142659 14.8867 0.506137 13.8708 1.4034 13.1216C2.30067 12.3723 3.51721 11.9508 4.78615 11.9496H30.2138C31.4828 11.9508 32.6993 12.3723 33.5966 13.1216C34.4939 13.8708 34.9986 14.8867 35 15.9464V33.1623C34.9979 34.71 34.2607 36.1939 32.9501 37.2883C31.6395 38.3827 29.8625 38.9983 28.0091 39V39Z" fill="#00BFA6"/>
<path d="M21.4793 23.3388C21.4799 22.7308 21.2864 22.1337 20.9187 21.609C20.551 21.0842 20.0224 20.6508 19.3875 20.3533C18.7525 20.0559 18.034 19.9051 17.3061 19.9166C16.5781 19.9281 15.867 20.1015 15.246 20.4188C14.6249 20.7361 14.1164 21.1859 13.7728 21.7219C13.4291 22.2579 13.2628 22.8607 13.2909 23.4682C13.319 24.0757 13.5405 24.666 13.9327 25.1783C14.3248 25.6905 14.8734 26.1063 15.5219 26.3826V31.7337H19.2453V26.3826C19.9175 26.0965 20.4819 25.6608 20.8761 25.1237C21.2704 24.5865 21.4791 23.9688 21.4793 23.3388V23.3388Z" fill="#2F2E41"/>
<path d="M21.4793 23.3388C21.4799 22.7308 21.2864 22.1337 20.9187 21.609C20.551 21.0842 20.0224 20.6508 19.3875 20.3533C18.7525 20.0559 18.034 19.9051 17.3061 19.9166C16.5781 19.9281 15.867 20.1015 15.246 20.4188C14.6249 20.7361 14.1164 21.1859 13.7728 21.7219C13.4291 22.2579 13.2628 22.8607 13.2909 23.4682C13.319 24.0757 13.5405 24.666 13.9327 25.1783C14.3248 25.6905 14.8734 26.1063 15.5219 26.3826V31.7337H19.2453V26.3826C19.9175 26.0965 20.4819 25.6608 20.8761 25.1237C21.2704 24.5865 21.4791 23.9688 21.4793 23.3388V23.3388Z" fill="#2F2E41"/>
</svg>
